<svg version="1.1" id="Layer_1" xmlns="http://www.w3.org/2000/svg" xmlns:xlink="http://www.w3.org/1999/xlink" x="0px" y="0px"
	 viewBox="0 0 1333.2 334.3" style="enable-background:new 0 0 1333.2 334.3;" xml:space="preserve">
<style type="text/css">
	.st0{fill:#FFFFFF;}
</style>
<g>
	<g>
		<path class="st0" d="M1155.1,167.4L1155.1,167.4l-65.7-156.5H940.1L809,323.4h129.4l12.9-35.9h126.8l12.9,35.9h64h65.5
			L1155.1,167.4z M978.1,211.4l36.2-105.9h0.9l36.3,105.9H978.1z"/>
		<path class="st0" d="M331.3,150.5v-0.9c23.3-9.2,36.7-33.3,36.7-60.8c0-49.9-28-77.9-91-77.9H0v312.4h263.6
			c90.2,0,120.4-40.3,120.4-101.5C384,198.7,371,161,331.3,150.5z M208,247.2h-88.9V207H208c24.6,0,30.2,8.3,30.2,19.7
			C238.1,238.9,232.6,247.2,208,247.2z M208,127.3h-88.9V87.1H208c24.6,0,30.2,8.3,30.2,19.7C238.1,119,232.6,127.3,208,127.3z"/>
		<path class="st0" d="M609,0C492.7,0,398.4,74.8,398.4,167.2c0,92.3,94.3,167.1,210.5,167.1c116.3,0,210.5-74.8,210.5-167.1
			C819.5,74.8,725.2,0,609,0z M612.7,247.2c-43.6,0-79-35.9-79-80.1c0-44.2,35.4-80.1,79-80.1c43.6,0,78.9,35.9,78.9,80.1
			C691.6,211.4,656.3,247.2,612.7,247.2z"/>
		<rect x="1258.1" y="247.2" class="st0" width="75" height="76.1"/>
	</g>
</g>
</svg>
